<svg xmlns="http://www.w3.org/2000/svg" viewBox="0 0 96 96" role="img" aria-labelledby="title"><title id="title">SayTaxi</title><rect width="96" height="96" rx="25" fill="#071016"/><defs><linearGradient id="g" x1="0" x2="1" y1="0" y2="1"><stop stop-color="#5cf09a"/><stop offset="1" stop-color="#18b76d"/></linearGradient></defs><path d="M48 15c-15 0-27 12-27 27 0 19.5 27 39 27 39s27-19.5 27-39c0-15-12-27-27-27Zm0 37a10 10 0 1 1 0-20 10 10 0 0 1 0 20Z" fill="url(#g)"/><path d="M29 62c5 7 12 12 19 17 7-5 14-10 19-17" fill="none" stroke="#b5f9ce" stroke-width="3" stroke-linecap="round"/></svg>
